# xmcd
#
# Track frame offsets: 
#        150
#        56925
#        102150
#        130392
#        163725
#        221550
#        266625
#        302242
#
# Disc length: 4466 seconds
#
# Revision: 0
# Processed by: cddbd v1.5.2PL0 Copyright (c) Steve Scherf et al.
# Submitted via: ExactAudioCopy v1.0b1
#
DISCID=79117008
DTITLE=Jochum - Beethoven Symphony No.4 and 7 ,CD3
DYEAR=2005
DGENRE=Classical
TTITLE0=Sym No.4 in B flat, Op.60: 1. Adagio - Allegro Vivace
TTITLE1=Sym No.4 in B flat, Op.60: 2. Adagio
TTITLE2=Sym No.4 in B flat, Op.60: 3. Allegro Molto E Vivace - Trio. U
TTITLE2=n Poco Meno Allegro
TTITLE3=Sym No.4 in B flat, Op.60: 4. Allegro Ma Non Troppo
TTITLE4=Sym No.7 in A, Op.92: 1. Poco Sostenuto - Vivace
TTITLE5=Sym No.7 in A, Op.92: 2. Allegretto
TTITLE6=Sym No.7 in A, Op.92: 3. Presto
TTITLE7=Sym No.7 in A, Op.92: 4. Allegro Con Brio
EXTD=
EXTT0=
EXTT1=
EXTT2=
EXTT3=
EXTT4=
EXTT5=
EXTT6=
EXTT7=
PLAYORDER=
